<svg fill="none" xmlns="http://www.w3.org/2000/svg" viewBox="0 0 170 80" width="170" height="80"><path fill-rule="evenodd" clip-rule="evenodd" d="M8 52h44.006V8H8v44Zm33.215-21.896 9.948-19.895v39.79l-9.948-19.895Zm-.473.942L50.8 51.156H35.056v-8.739l5.685-11.37Zm-.47-.942-5.637 11.272-10.268-20.534 5.636-11.27 10.268 20.532Zm-16.377-8.319 10.317 20.632v8.74H17.798V33.978l6.097-12.193ZM8.844 8.843h8.11V33.78l-8.11 16.218V8.843Zm.363 42.314 7.747-15.492v15.492H9.207ZM29.424 8.843l-11.626 23.25V8.842h11.626ZM40.743 29.16 30.582 8.843h20.32L40.742 29.16ZM156.969 41.346 158.354 52H162l-6.538-44h-4.715l-6.538 44h3.646l1.401-10.654h7.713Zm-3.77-29.01 3.362 25.876h-6.892l3.404-25.875h.126Z" fill="#2E1C17"/><path d="M126.542 37.354V52h-3.583V37.354L115.918 8h3.583l5.218 23.445h.126L130.126 8h3.583l-7.167 29.354ZM98.046 8h3.583v44h-3.583V8ZM84.684 48.982h-10.06V8h-3.582v44h13.642v-3.018ZM162 71.942h-3.454v-5.883H162v.538h-2.879v2.05h2.386v.539h-2.386v2.218H162v.538ZM153.033 69.513h-1.727v-.537h2.262v.193c0 .482-.054.9-.161 1.256-.106.356-.257.65-.452.882a1.808 1.808 0 0 1-.712.521 2.439 2.439 0 0 1-.937.172c-.345 0-.661-.06-.946-.185a2.06 2.06 0 0 1-.741-.542 2.516 2.516 0 0 1-.485-.88 3.837 3.837 0 0 1-.173-1.207v-.454c0-.431.057-.817.173-1.156.115-.34.277-.625.485-.857.209-.232.457-.41.745-.534.288-.123.602-.185.942-.185.318 0 .604.047.859.139.256.092.477.218.663.374.186.156.337.342.452.556.116.212.195.435.239.671h-.609a1.86 1.86 0 0 0-.193-.47 1.415 1.415 0 0 0-.329-.383 1.53 1.53 0 0 0-.469-.256 1.868 1.868 0 0 0-.613-.092c-.252 0-.485.047-.699.142a1.555 1.555 0 0 0-.556.42 2.01 2.01 0 0 0-.366.69 3.082 3.082 0 0 0-.131.94v.455c0 .374.045.704.136.987.09.282.213.52.37.71.155.19.341.335.555.433.214.098.444.146.691.146.263 0 .499-.036.707-.109.209-.072.386-.187.531-.345.145-.156.26-.357.342-.604.082-.246.131-.543.147-.891Z" fill="#2E1C17"/><path fill-rule="evenodd" clip-rule="evenodd" d="m144.396 71.942-1.316-2.52c.383-.12.671-.318.863-.597.193-.28.288-.623.288-1.026 0-.532-.166-.956-.498-1.269-.331-.314-.837-.47-1.517-.47h-1.851v5.882h.576v-2.403h1.423c.049 0 .095-.003.14-.008l1.234 2.41h.658Zm-.757-4.143c0 .387-.114.683-.341.89-.228.208-.602.312-1.123.312h-1.234v-2.404h1.234c.515 0 .888.107 1.119.32.23.212.345.506.345.882Z" fill="#2E1C17"/><path d="M135.51 71.942h-3.454v-5.883h3.454v.538h-2.879v2.05h2.386v.539h-2.386v2.218h2.879v.538ZM126.791 71.942h-.576v-5.883h.576v5.883ZM117.803 67.101a2.017 2.017 0 0 0-.366.685 3.073 3.073 0 0 0-.132.946v.454c0 .374.046.705.137.992.09.285.213.524.37.713.156.192.341.333.554.43.215.094.445.141.692.141.444 0 .797-.12 1.057-.36.261-.241.431-.55.514-.924h.609a2.564 2.564 0 0 1-.235.726 1.892 1.892 0 0 1-.448.576c-.186.161-.405.29-.654.382-.25.093-.531.138-.843.138a2.35 2.35 0 0 1-.947-.185 2.062 2.062 0 0 1-.739-.542 2.486 2.486 0 0 1-.486-.88 3.867 3.867 0 0 1-.172-1.207v-.454c0-.431.057-.817.172-1.156.115-.34.276-.625.486-.857.208-.232.456-.41.744-.534.287-.123.602-.185.942-.185.312 0 .593.047.843.139a2.2 2.2 0 0 1 .654.374c.186.156.336.34.448.55.112.21.19.437.235.677h-.609a1.862 1.862 0 0 0-.194-.47 1.414 1.414 0 0 0-.785-.639 1.773 1.773 0 0 0-.592-.092c-.252 0-.486.047-.699.142a1.555 1.555 0 0 0-.556.42ZM111.144 71.186h.017v-5.127h.575v5.883h-.806l-2.961-5.21h-.017v5.21h-.576v-5.883h.856l2.912 5.127Z" fill="#2E1C17"/><path fill-rule="evenodd" clip-rule="evenodd" d="M102.399 68.732c0-.437-.058-.825-.172-1.164a2.422 2.422 0 0 0-.49-.857 2.083 2.083 0 0 0-.757-.53 2.544 2.544 0 0 0-.967-.181c-.35 0-.673.062-.966.185a2.08 2.08 0 0 0-.752.534 2.463 2.463 0 0 0-.49.857 3.48 3.48 0 0 0-.178 1.156v.454c0 .454.058.855.174 1.206.115.35.278.644.489.881.211.239.462.419.753.542.29.125.614.185.97.185.351 0 .673-.06.967-.185.294-.123.545-.303.753-.542.208-.237.372-.532.489-.88.118-.352.177-.753.177-1.207v-.454Zm-.728-.937c.091.271.136.584.136.937v.454c0 .38-.044.713-.131.995-.089.284-.212.52-.37.71-.16.192-.35.333-.568.43-.22.094-.461.141-.725.141a1.73 1.73 0 0 1-.715-.146 1.578 1.578 0 0 1-.568-.433 2.098 2.098 0 0 1-.374-.71 3.25 3.25 0 0 1-.136-.987v-.454c0-.359.044-.674.132-.946.087-.271.211-.5.37-.685.16-.184.348-.325.568-.42.22-.094.46-.142.723-.142.258 0 .497.047.717.142.219.095.408.237.567.425.159.187.283.417.374.69Z" fill="#2E1C17"/><path d="M89.504 67.101a2.014 2.014 0 0 0-.366.685 3.08 3.08 0 0 0-.131.946v.454c0 .374.045.705.136.992.09.285.213.524.37.713.156.192.34.333.554.43.215.094.446.141.692.141.444 0 .796-.12 1.057-.36.26-.241.432-.55.514-.924h.609a2.523 2.523 0 0 1-.235.726 1.89 1.89 0 0 1-.448.576c-.186.161-.404.29-.654.382-.25.093-.53.138-.843.138a2.34 2.34 0 0 1-.946-.185 2.055 2.055 0 0 1-.74-.542 2.518 2.518 0 0 1-.486-.88 3.866 3.866 0 0 1-.173-1.207v-.454c0-.431.058-.817.173-1.156.115-.34.277-.625.485-.857.209-.232.457-.41.745-.534.288-.123.601-.185.942-.185.312 0 .594.047.843.139a2.2 2.2 0 0 1 .654.374c.187.156.336.34.448.55.113.21.19.437.235.677h-.608a1.862 1.862 0 0 0-.194-.47 1.45 1.45 0 0 0-.325-.383 1.48 1.48 0 0 0-.46-.256 1.777 1.777 0 0 0-.593-.092c-.252 0-.485.047-.699.142-.215.095-.4.236-.556.42ZM75.746 66.597h-1.893v-.538h4.36v.538h-1.892v5.345h-.575v-5.345ZM66.573 71.942h-.576v-5.883h3.454v.538h-2.878v2.05h2.385v.539h-2.385v2.755ZM60.732 71.942h-.576v-5.883h.576v5.883ZM54.561 69.513h-1.726v-.537h2.261v.193c0 .482-.053.9-.16 1.256-.107.356-.258.65-.452.882a1.82 1.82 0 0 1-.712.521c-.28.115-.592.172-.937.172-.346 0-.662-.06-.947-.185a2.055 2.055 0 0 1-.74-.542 2.517 2.517 0 0 1-.486-.88 3.863 3.863 0 0 1-.173-1.207v-.454c0-.431.058-.817.173-1.156.116-.34.277-.625.486-.857a2.09 2.09 0 0 1 .744-.534c.288-.123.602-.185.943-.185.318 0 .604.047.86.139.254.092.475.218.662.374.186.156.336.342.452.556.115.212.194.435.238.671h-.608a1.887 1.887 0 0 0-.194-.47 1.418 1.418 0 0 0-.328-.383 1.533 1.533 0 0 0-.47-.256 1.865 1.865 0 0 0-.612-.092c-.253 0-.486.047-.7.142-.214.095-.4.236-.555.42a1.995 1.995 0 0 0-.366.69 3.087 3.087 0 0 0-.132.94v.455c0 .374.045.704.136.987.09.282.213.52.37.71a1.556 1.556 0 0 0 1.247.579c.262 0 .498-.036.707-.109.209-.072.385-.187.53-.345.145-.156.26-.357.342-.604.082-.246.131-.543.147-.891Z" fill="#2E1C17"/><path fill-rule="evenodd" clip-rule="evenodd" d="m40.166 71.942-1.317-2.52c.384-.12.673-.318.864-.597.192-.28.288-.623.288-1.026 0-.532-.165-.956-.497-1.269-.333-.314-.838-.47-1.518-.47h-1.851v5.882h.576v-2.403h1.422c.05 0 .096-.003.14-.008l1.235 2.41h.658Zm-.757-4.143c0 .387-.113.683-.341.89-.229.208-.602.312-1.124.312h-1.233v-2.404h1.233c.516 0 .889.107 1.12.32.23.212.345.506.345.882Z" fill="#2E1C17"/><path d="M29.994 71c.282-.308.423-.764.423-1.369v-3.572h.576v3.614c0 .364-.052.689-.156.975-.104.285-.25.53-.436.731a1.86 1.86 0 0 1-.674.462 2.313 2.313 0 0 1-.872.159c-.324 0-.617-.051-.881-.155a1.829 1.829 0 0 1-.675-.454 2.05 2.05 0 0 1-.431-.73 2.969 2.969 0 0 1-.152-.988v-3.614h.575v3.572c0 .599.142 1.054.428 1.366.284.31.663.465 1.136.465.476 0 .856-.153 1.139-.462Z" fill="#2E1C17"/><path fill-rule="evenodd" clip-rule="evenodd" d="M21.78 68.732a3.63 3.63 0 0 0-.173-1.164 2.421 2.421 0 0 0-.49-.857 2.098 2.098 0 0 0-.756-.53 2.548 2.548 0 0 0-.968-.181c-.35 0-.673.062-.966.185a2.075 2.075 0 0 0-.753.534 2.46 2.46 0 0 0-.489.857 3.48 3.48 0 0 0-.177 1.156v.454c0 .454.058.855.173 1.206.115.35.278.644.49.881.21.239.461.419.752.542.29.125.614.185.97.185.351 0 .673-.06.968-.185.293-.123.543-.303.752-.542.209-.237.371-.532.49-.88.117-.352.176-.753.176-1.207v-.454Zm-.729-.937c.091.271.136.584.136.937v.454c0 .38-.044.713-.132.995-.088.284-.21.52-.37.71a1.53 1.53 0 0 1-.568.43c-.219.094-.46.141-.724.141-.257 0-.496-.048-.715-.146a1.578 1.578 0 0 1-.568-.433 2.086 2.086 0 0 1-.374-.71 3.25 3.25 0 0 1-.136-.987v-.454c0-.359.044-.674.132-.946.087-.271.21-.5.37-.685.16-.184.348-.325.567-.42.22-.094.462-.142.724-.142.258 0 .497.047.717.142.219.095.408.237.567.425.159.187.283.417.374.69Z" fill="#2E1C17"/><path d="m8.641 66.06 1.877 3.142 1.71-3.143h.626l-2.057 3.74v2.142h-.576v-2.143L8 66.06h.641Z" fill="#2E1C17"/></svg>